<?xml version="1.0" encoding="UTF-8" standalone="no"?>
<!DOCTYPE svg PUBLIC "-//W3C//DTD SVG 1.1//EN" "http://www.w3.org/Graphics/SVG/1.1/DTD/svg11.dtd">
<svg width="100%" height="100%" viewBox="0 0 438 92" version="1.1" xmlns="http://www.w3.org/2000/svg" xmlns:xlink="http://www.w3.org/1999/xlink" xml:space="preserve" xmlns:serif="http://www.serif.com/" style="fill-rule:evenodd;clip-rule:evenodd;stroke-linejoin:round;stroke-miterlimit:2;">
    <g transform="matrix(1,0,0,1,-293,-338)">
        <g id="logo-center">
            <g id="slogan">
                <g id="path6473" transform="matrix(0.75,0,0,0.75,127.403,423.914)">
                    <path d="M254.432,-24.512C254.08,-24.832 253.696,-24.992 253.248,-24.96C252.608,-24.96 252.128,-24.672 251.776,-24.128L251.776,-24.064C251.743,-24.064 251.743,-24.032 251.743,-24.032L243.359,-6.784C243.199,-6.432 242.911,-6.272 242.495,-6.24C242.111,-6.24 241.823,-6.432 241.631,-6.784L233.023,-24.064L232.991,-24.096C232.639,-24.672 232.159,-24.992 231.551,-24.992C231.071,-24.992 230.687,-24.832 230.367,-24.512C230.047,-24.192 229.887,-23.776 229.887,-23.328L229.887,-1.664C229.887,-1.184 230.047,-0.8 230.367,-0.48C230.687,-0.16 231.071,0 231.551,0C231.999,0 232.415,-0.16 232.735,-0.48C233.055,-0.8 233.215,-1.184 233.215,-1.664L233.215,-13.184C233.215,-13.696 233.439,-13.984 233.951,-14.112C234.431,-14.24 234.783,-14.048 235.039,-13.6L240.863,-1.952C241.183,-1.28 241.695,-0.96 242.399,-0.96C242.975,-0.96 243.423,-1.216 243.775,-1.728C243.807,-1.76 243.839,-1.792 243.839,-1.824L249.727,-13.824C249.951,-14.304 250.335,-14.464 250.815,-14.336C251.327,-14.24 251.583,-13.92 251.583,-13.408L251.583,-1.664C251.583,-1.184 251.743,-0.8 252.063,-0.48C252.383,-0.16 252.767,0 253.247,0C253.695,0 254.079,-0.16 254.399,-0.48C254.719,-0.8 254.911,-1.184 254.911,-1.664L254.911,-23.328C254.911,-23.776 254.751,-24.192 254.431,-24.512Z" style="fill:rgb(74,222,128);fill-rule:nonzero;"/>
                </g>
                <g id="path6475" transform="matrix(0.75,0,0,0.75,127.403,423.914)">
                    <path d="M277.741,-8.736C277.741,-10.368 277.325,-11.904 276.557,-13.248C275.789,-14.592 274.733,-15.68 273.389,-16.448C272.045,-17.216 270.573,-17.632 268.941,-17.632C267.277,-17.632 265.773,-17.216 264.429,-16.448C263.085,-15.68 262.029,-14.592 261.261,-13.248C260.493,-11.904 260.109,-10.4 260.109,-8.736C260.109,-7.072 260.461,-5.536 261.165,-4.192C261.869,-2.848 262.861,-1.792 264.109,-1.024C265.389,-0.224 266.765,0.16 268.301,0.16L276.205,0.16C276.621,0.16 276.973,-0 277.293,-0.288C277.581,-0.576 277.741,-0.928 277.741,-1.376L277.741,-8.736ZM263.981,-5.664C263.469,-6.56 263.245,-7.584 263.245,-8.736C263.245,-9.856 263.469,-10.88 263.981,-11.808C264.493,-12.704 265.165,-13.44 266.029,-13.952C266.893,-14.464 267.853,-14.752 268.941,-14.752C269.997,-14.752 270.957,-14.464 271.821,-13.952C272.685,-13.44 273.357,-12.704 273.869,-11.808C274.349,-10.88 274.605,-9.856 274.605,-8.736C274.605,-7.584 274.349,-6.56 273.869,-5.664C273.357,-4.768 272.685,-4.032 271.821,-3.52C270.957,-3.008 269.997,-2.752 268.941,-2.752C267.853,-2.752 266.893,-3.008 266.029,-3.52C265.165,-4.032 264.493,-4.768 263.981,-5.664Z" style="fill:rgb(74,222,128);fill-rule:nonzero;"/>
                </g>
                <g id="path6477" transform="matrix(0.75,0,0,0.75,127.403,423.914)">
                    <path d="M295.078,-16.48C293.734,-17.248 292.23,-17.632 290.566,-17.632C288.838,-17.632 287.334,-17.248 285.99,-16.48C284.646,-15.712 283.59,-14.688 282.854,-13.344C282.086,-12 281.734,-10.464 281.734,-8.736C281.734,-7.008 282.054,-5.504 282.758,-4.16C283.462,-2.816 284.422,-1.76 285.67,-0.992C286.918,-0.224 288.326,0.128 289.926,0.128C291.27,0.128 292.518,-0.192 293.606,-0.864C294.694,-1.504 295.558,-2.432 296.23,-3.616L296.23,-2.048C296.23,-0.704 295.974,0.48 295.462,1.44C294.95,2.4 294.246,3.136 293.414,3.648C292.55,4.16 291.59,4.384 290.566,4.384C289.446,4.384 288.454,4.192 287.59,3.808C286.694,3.424 285.99,2.848 285.414,2.08C285.062,1.632 284.614,1.408 284.102,1.408C283.782,1.408 283.494,1.504 283.206,1.696C282.758,2.016 282.534,2.4 282.534,2.848C282.534,3.168 282.63,3.456 282.886,3.744C283.782,4.896 284.87,5.76 286.214,6.368C287.526,6.976 288.966,7.264 290.502,7.264C292.198,7.264 293.734,6.88 295.078,6.08C296.422,5.28 297.478,4.192 298.246,2.784C298.982,1.408 299.366,-0.128 299.366,-1.824L299.366,-8.736C299.366,-10.464 298.982,-12 298.214,-13.344C297.446,-14.688 296.422,-15.712 295.078,-16.48ZM293.478,-3.52C292.614,-3.008 291.654,-2.752 290.566,-2.752C289.478,-2.752 288.486,-3.008 287.622,-3.52C286.758,-4.032 286.086,-4.736 285.606,-5.632C285.094,-6.528 284.87,-7.584 284.87,-8.736C284.87,-9.888 285.094,-10.912 285.606,-11.84C286.086,-12.736 286.758,-13.472 287.622,-13.984C288.486,-14.496 289.478,-14.752 290.566,-14.752C291.654,-14.752 292.614,-14.496 293.478,-13.984C294.342,-13.472 295.014,-12.736 295.494,-11.84C295.974,-10.912 296.23,-9.888 296.23,-8.736C296.23,-7.584 295.974,-6.528 295.494,-5.632C295.014,-4.736 294.342,-4.032 293.478,-3.52Z" style="fill:rgb(74,222,128);fill-rule:nonzero;"/>
                </g>
                <g id="path6479" transform="matrix(0.75,0,0,0.75,127.403,423.914)">
                    <path d="M320.991,-8.736C320.991,-10.368 320.575,-11.904 319.807,-13.248C319.039,-14.592 317.983,-15.68 316.639,-16.448C315.295,-17.216 313.823,-17.632 312.191,-17.632C310.527,-17.632 309.023,-17.216 307.679,-16.448C306.335,-15.68 305.279,-14.592 304.511,-13.248C303.743,-11.904 303.359,-10.4 303.359,-8.736C303.359,-7.072 303.711,-5.536 304.415,-4.192C305.119,-2.848 306.111,-1.792 307.359,-1.024C308.639,-0.224 310.015,0.16 311.551,0.16L319.455,0.16C319.871,0.16 320.223,-0 320.543,-0.288C320.831,-0.576 320.991,-0.928 320.991,-1.376L320.991,-8.736ZM307.231,-5.664C306.719,-6.56 306.495,-7.584 306.495,-8.736C306.495,-9.856 306.719,-10.88 307.231,-11.808C307.743,-12.704 308.415,-13.44 309.279,-13.952C310.143,-14.464 311.103,-14.752 312.191,-14.752C313.247,-14.752 314.207,-14.464 315.071,-13.952C315.935,-13.44 316.607,-12.704 317.119,-11.808C317.599,-10.88 317.855,-9.856 317.855,-8.736C317.855,-7.584 317.599,-6.56 317.119,-5.664C316.607,-4.768 315.935,-4.032 315.071,-3.52C314.207,-3.008 313.247,-2.752 312.191,-2.752C311.103,-2.752 310.143,-3.008 309.279,-3.52C308.415,-4.032 307.743,-4.768 307.231,-5.664Z" style="fill:rgb(74,222,128);fill-rule:nonzero;"/>
                </g>
                <g id="path6481" transform="matrix(0.75,0,0,0.75,127.403,423.914)">
                    <path d="M339,-1.504C339,-2.496 338.488,-3.008 337.496,-3.008L329.368,-3.008L338.392,-14.976C338.584,-15.232 338.68,-15.552 338.68,-16C338.68,-16.992 338.168,-17.504 337.176,-17.504L326.264,-17.504C325.24,-17.504 324.76,-16.992 324.76,-16C324.76,-14.976 325.24,-14.496 326.264,-14.496L334.424,-14.496L325.368,-2.528C325.176,-2.272 325.08,-1.92 325.08,-1.504C325.08,-0.48 325.56,-0 326.584,-0L337.496,-0C338.488,0 339,-0.48 339,-1.504Z" style="fill:rgb(74,222,128);fill-rule:nonzero;"/>
                </g>
                <g id="path6483" transform="matrix(0.75,0,0,0.75,127.403,423.914)">
                    <path d="M343.898,-17.056C343.578,-16.736 343.45,-16.352 343.45,-15.872L343.45,-1.632C343.45,-1.152 343.578,-0.768 343.898,-0.448C344.218,-0.128 344.602,-0 345.082,-0C345.562,-0 345.946,-0.128 346.266,-0.448C346.554,-0.768 346.714,-1.152 346.714,-1.632L346.714,-15.872C346.714,-16.352 346.554,-16.736 346.266,-17.056C345.946,-17.344 345.562,-17.504 345.082,-17.504C344.602,-17.504 344.218,-17.344 343.898,-17.056Z" style="fill:rgb(74,222,128);fill-rule:nonzero;"/>
                </g>
                <g id="path6485" transform="matrix(0.75,0,0,0.75,127.403,423.914)">
                    <path d="M368.241,-13.888C367.569,-15.104 366.641,-16.064 365.489,-16.704C364.369,-17.28 363.153,-17.6 361.809,-17.632C361.777,-17.632 361.713,-17.664 361.713,-17.664L354.353,-17.664C353.905,-17.664 353.553,-17.504 353.265,-17.216C352.945,-16.896 352.817,-16.544 352.817,-16.128L352.817,-1.6C352.817,-1.12 352.945,-0.736 353.265,-0.416C353.585,-0.096 353.969,0.032 354.449,0.032C354.929,0.032 355.313,-0.096 355.633,-0.416C355.922,-0.736 356.081,-1.12 356.081,-1.6L356.081,-10.624C356.081,-11.392 356.273,-12.064 356.689,-12.704C357.105,-13.312 357.681,-13.792 358.417,-14.176C359.153,-14.528 359.985,-14.72 360.881,-14.72C362.417,-14.72 363.633,-14.272 364.561,-13.376C365.489,-12.48 365.97,-11.168 365.97,-9.472L365.97,-1.6C365.97,-1.12 366.097,-0.736 366.417,-0.416C366.737,-0.096 367.121,0.032 367.602,0.032C368.049,0.032 368.434,-0.096 368.753,-0.416C369.073,-0.736 369.234,-1.12 369.234,-1.6L369.234,-9.472C369.234,-11.2 368.882,-12.672 368.241,-13.888Z" style="fill:rgb(74,222,128);fill-rule:nonzero;"/>
                </g>
                <g id="path6487" transform="matrix(0.75,0,0,0.75,127.403,423.914)">
                    <path d="M389.926,-8C390.182,-8.256 390.342,-8.608 390.342,-9.024C390.342,-10.688 390.022,-12.192 389.382,-13.504C388.742,-14.784 387.814,-15.808 386.63,-16.544C385.414,-17.248 384.006,-17.632 382.374,-17.632C380.71,-17.632 379.206,-17.248 377.894,-16.48C376.582,-15.712 375.558,-14.656 374.822,-13.312C374.086,-11.968 373.734,-10.432 373.734,-8.736C373.734,-7.008 374.118,-5.504 374.886,-4.16C375.654,-2.816 376.742,-1.76 378.15,-0.992C379.526,-0.224 381.094,0.128 382.854,0.128C383.814,0.128 384.838,-0.032 385.926,-0.416C387.014,-0.768 387.91,-1.248 388.646,-1.824C388.966,-2.08 389.158,-2.4 389.158,-2.784C389.158,-3.168 388.966,-3.552 388.582,-3.872C388.326,-4.064 388.006,-4.192 387.622,-4.192C387.206,-4.192 386.854,-4.064 386.566,-3.84C386.118,-3.488 385.542,-3.2 384.838,-2.976C384.134,-2.72 383.494,-2.624 382.854,-2.624C381.222,-2.624 379.846,-3.072 378.726,-4C377.606,-4.896 376.934,-6.112 376.71,-7.616L388.87,-7.616C389.286,-7.616 389.638,-7.744 389.926,-8ZM378.566,-13.6C379.526,-14.432 380.806,-14.88 382.374,-14.88C383.782,-14.88 384.902,-14.432 385.798,-13.6C386.662,-12.736 387.206,-11.584 387.398,-10.176L376.742,-10.176C376.998,-11.584 377.606,-12.736 378.566,-13.6Z" style="fill:rgb(74,222,128);fill-rule:nonzero;"/>
                </g>
                <g id="path6489" transform="matrix(0.75,0,0,0.75,127.403,423.914)">
                    <path d="M404.2,-17.408L404.2,-1.632C404.2,-1.12 404.328,-0.736 404.648,-0.448C404.968,-0.128 405.32,-0 405.768,-0C406.28,-0 406.696,-0.128 407.016,-0.448C407.304,-0.736 407.464,-1.12 407.464,-1.632L407.464,-14.112L410.728,-14.112C411.176,-14.112 411.528,-14.24 411.816,-14.496C412.072,-14.752 412.232,-15.072 412.232,-15.456C412.232,-15.872 412.072,-16.224 411.816,-16.48C411.528,-16.736 411.176,-16.864 410.728,-16.864L407.464,-16.864L407.464,-17.728C407.464,-19.008 407.816,-20.064 408.552,-20.864C409.256,-21.632 410.216,-22.048 411.432,-22.048C411.88,-22.048 412.264,-22.176 412.584,-22.464C412.904,-22.72 413.064,-23.072 413.064,-23.52C413.064,-23.936 412.904,-24.288 412.584,-24.576C412.264,-24.832 411.88,-24.992 411.432,-24.992C409.992,-24.992 408.744,-24.672 407.656,-24.032C406.568,-23.392 405.704,-22.528 405.096,-21.376C404.488,-20.224 404.2,-18.912 404.2,-17.408Z" style="fill:rgb(74,222,128);fill-rule:nonzero;"/>
                </g>
                <g id="path6491" transform="matrix(0.75,0,0,0.75,127.403,423.914)">
                    <path d="M427.453,-16.48C426.109,-17.248 424.605,-17.632 422.941,-17.632C421.213,-17.632 419.709,-17.248 418.365,-16.48C417.021,-15.712 415.965,-14.688 415.229,-13.344C414.461,-12 414.109,-10.464 414.109,-8.736C414.109,-7.008 414.461,-5.504 415.229,-4.16C415.965,-2.816 417.021,-1.76 418.365,-0.992C419.709,-0.224 421.213,0.128 422.941,0.128C424.637,0.128 426.141,-0.224 427.485,-0.992C428.829,-1.76 429.853,-2.816 430.621,-4.16C431.357,-5.504 431.741,-7.008 431.741,-8.736C431.741,-10.464 431.357,-12 430.589,-13.344C429.821,-14.688 428.797,-15.712 427.453,-16.48ZM419.997,-13.984C420.861,-14.496 421.853,-14.752 422.941,-14.752C424.029,-14.752 424.989,-14.496 425.853,-13.984C426.717,-13.472 427.389,-12.736 427.869,-11.84C428.349,-10.912 428.605,-9.888 428.605,-8.736C428.605,-7.584 428.349,-6.528 427.869,-5.632C427.389,-4.736 426.717,-4.032 425.853,-3.52C424.989,-3.008 424.029,-2.752 422.941,-2.752C421.853,-2.752 420.861,-3.008 419.997,-3.52C419.133,-4.032 418.461,-4.736 417.981,-5.632C417.469,-6.528 417.245,-7.584 417.245,-8.736C417.245,-9.888 417.469,-10.912 417.981,-11.84C418.461,-12.736 419.133,-13.472 419.997,-13.984Z" style="fill:rgb(74,222,128);fill-rule:nonzero;"/>
                </g>
                <g id="path6493" transform="matrix(0.75,0,0,0.75,127.403,423.914)">
                    <path d="M447.862,-17.184C447.222,-17.504 446.326,-17.696 445.206,-17.696C444.118,-17.696 443.126,-17.472 442.198,-17.056C441.238,-16.608 440.47,-16.032 439.83,-15.296L439.83,-15.904C439.83,-16.96 439.286,-17.504 438.23,-17.504C437.718,-17.504 437.302,-17.344 437.046,-17.088C436.758,-16.8 436.63,-16.416 436.63,-15.904L436.63,-1.6C436.63,-1.056 436.758,-0.64 437.046,-0.384C437.302,-0.128 437.718,-0 438.23,-0C438.742,-0 439.158,-0.128 439.414,-0.416C439.67,-0.672 439.83,-1.088 439.83,-1.6L439.83,-10.944C439.83,-12.128 440.278,-13.088 441.238,-13.792C442.166,-14.496 443.414,-14.848 444.95,-14.848C445.462,-14.848 446.166,-14.752 447.03,-14.624C447.222,-14.56 447.382,-14.56 447.51,-14.56C448.15,-14.56 448.598,-14.88 448.79,-15.584C448.79,-15.648 448.822,-15.744 448.822,-15.904C448.822,-16.416 448.502,-16.832 447.862,-17.184Z" style="fill:rgb(74,222,128);fill-rule:nonzero;"/>
                </g>
                <g id="path6495" transform="matrix(0.75,0,0,0.75,127.403,423.914)">
                    <path d="M474.24,-16.704C473.056,-17.344 471.744,-17.664 470.272,-17.664C469.184,-17.664 468.192,-17.472 467.264,-17.088C466.304,-16.704 465.504,-16.192 464.832,-15.52L464.832,-23.36C464.832,-23.84 464.671,-24.224 464.384,-24.544C464.064,-24.832 463.68,-24.992 463.2,-24.992C462.72,-24.992 462.336,-24.832 462.015,-24.544C461.696,-24.224 461.568,-23.84 461.568,-23.36L461.568,-1.6C461.568,-1.12 461.696,-0.736 462.015,-0.416C462.335,-0.096 462.72,0.032 463.2,0.032C463.68,0.032 464.063,-0.096 464.384,-0.416C464.672,-0.736 464.832,-1.12 464.832,-1.6L464.832,-10.624C464.832,-11.392 465.024,-12.064 465.44,-12.704C465.856,-13.312 466.432,-13.792 467.168,-14.176C467.904,-14.528 468.736,-14.72 469.632,-14.72C471.168,-14.72 472.384,-14.272 473.312,-13.376C474.24,-12.48 474.72,-11.2 474.72,-9.472L474.72,-1.6C474.72,-1.12 474.848,-0.736 475.168,-0.416C475.488,-0.096 475.872,0.032 476.352,0.032C476.8,0.032 477.184,-0.096 477.504,-0.416C477.824,-0.736 477.984,-1.12 477.984,-1.6L477.984,-9.472C477.984,-11.2 477.632,-12.672 476.992,-13.888C476.32,-15.104 475.392,-16.064 474.24,-16.704Z" style="fill:rgb(74,222,128);fill-rule:nonzero;"/>
                </g>
                <g id="path6497" transform="matrix(0.75,0,0,0.75,127.403,423.914)">
                    <path d="M500.179,-8.736C500.179,-10.368 499.763,-11.904 498.994,-13.248C498.227,-14.592 497.17,-15.68 495.826,-16.448C494.482,-17.216 493.01,-17.632 491.378,-17.632C489.715,-17.632 488.21,-17.216 486.866,-16.448C485.522,-15.68 484.467,-14.592 483.698,-13.248C482.931,-11.904 482.546,-10.4 482.546,-8.736C482.546,-7.072 482.898,-5.536 483.602,-4.192C484.306,-2.848 485.299,-1.792 486.546,-1.024C487.826,-0.224 489.203,0.16 490.739,0.16L498.643,0.16C499.058,0.16 499.41,-0 499.731,-0.288C500.019,-0.576 500.179,-0.928 500.179,-1.376L500.179,-8.736ZM486.419,-5.664C485.907,-6.56 485.683,-7.584 485.683,-8.736C485.683,-9.856 485.907,-10.88 486.419,-11.808C486.931,-12.704 487.603,-13.44 488.467,-13.952C489.33,-14.464 490.291,-14.752 491.378,-14.752C492.434,-14.752 493.395,-14.464 494.258,-13.952C495.122,-13.44 495.794,-12.704 496.306,-11.808C496.787,-10.88 497.042,-9.856 497.042,-8.736C497.042,-7.584 496.787,-6.56 496.306,-5.664C495.794,-4.768 495.122,-4.032 494.258,-3.52C493.395,-3.008 492.434,-2.752 491.378,-2.752C490.29,-2.752 489.33,-3.008 488.467,-3.52C487.603,-4.032 486.931,-4.768 486.419,-5.664Z" style="fill:rgb(74,222,128);fill-rule:nonzero;"/>
                </g>
                <g id="path6499" transform="matrix(0.75,0,0,0.75,127.403,423.914)">
                    <path d="M519.116,-14.752C517.452,-16.672 515.34,-17.632 512.843,-17.632C511.179,-17.632 509.675,-17.248 508.363,-16.48C507.019,-15.712 505.995,-14.656 505.259,-13.312C504.523,-11.968 504.171,-10.432 504.171,-8.736C504.171,-7.072 504.523,-5.536 505.291,-4.192C506.059,-2.848 507.115,-1.792 508.459,-1.024C509.803,-0.256 511.307,0.128 513.003,0.128C515.307,0.128 517.227,-0.576 518.763,-2.016C519.019,-2.272 519.147,-2.56 519.147,-2.88C519.147,-3.296 518.923,-3.68 518.539,-4.032C518.284,-4.224 517.996,-4.32 517.708,-4.32C517.323,-4.32 516.908,-4.16 516.524,-3.872C515.628,-3.104 514.443,-2.752 513.004,-2.752C511.884,-2.752 510.892,-3.008 510.028,-3.52C509.164,-4.032 508.492,-4.736 508.012,-5.632C507.532,-6.528 507.308,-7.584 507.308,-8.736C507.308,-10.528 507.82,-12 508.844,-13.088C509.868,-14.176 511.18,-14.752 512.843,-14.752C513.643,-14.752 514.347,-14.592 514.987,-14.336C515.627,-14.08 516.203,-13.664 516.747,-13.088C517.068,-12.704 517.483,-12.512 517.996,-12.512C518.251,-12.512 518.507,-12.576 518.732,-12.736C519.179,-13.056 519.435,-13.44 519.435,-13.92C519.435,-14.24 519.307,-14.496 519.115,-14.752Z" style="fill:rgb(74,222,128);fill-rule:nonzero;"/>
                </g>
                <g id="path6501" transform="matrix(0.75,0,0,0.75,127.403,423.914)">
                    <path d="M537.886,-1.344C537.886,-1.728 537.757,-2.048 537.534,-2.304L531.326,-9.92L537.214,-15.168C537.534,-15.424 537.726,-15.808 537.726,-16.256C537.726,-16.64 537.566,-16.96 537.31,-17.248C537.021,-17.568 536.67,-17.76 536.222,-17.76C535.838,-17.76 535.486,-17.6 535.23,-17.344L527.454,-10.4L527.454,-23.424C527.454,-23.872 527.294,-24.256 527.006,-24.544C526.718,-24.832 526.334,-24.992 525.886,-24.992C525.406,-24.992 525.022,-24.832 524.734,-24.544C524.446,-24.256 524.318,-23.872 524.318,-23.424L524.318,-1.568C524.318,-1.088 524.446,-0.704 524.734,-0.416C525.022,-0.128 525.406,0 525.886,0C526.334,0 526.718,-0.128 527.006,-0.416C527.294,-0.704 527.454,-1.088 527.454,-1.568L527.454,-6.464L529.054,-7.872L535.134,-0.352C535.422,0.032 535.806,0.224 536.286,0.224C536.638,0.224 536.99,0.096 537.31,-0.16C537.694,-0.48 537.886,-0.864 537.886,-1.344Z" style="fill:rgb(74,222,128);fill-rule:nonzero;"/>
                </g>
                <g id="path6503" transform="matrix(0.75,0,0,0.75,127.403,423.914)">
                    <path d="M556.176,-8C556.432,-8.256 556.592,-8.608 556.592,-9.024C556.592,-10.688 556.272,-12.192 555.632,-13.504C554.992,-14.784 554.064,-15.808 552.88,-16.544C551.664,-17.248 550.256,-17.632 548.624,-17.632C546.96,-17.632 545.456,-17.248 544.144,-16.48C542.832,-15.712 541.808,-14.656 541.072,-13.312C540.336,-11.968 539.984,-10.432 539.984,-8.736C539.984,-7.008 540.368,-5.504 541.136,-4.16C541.904,-2.816 542.992,-1.76 544.4,-0.992C545.776,-0.224 547.344,0.128 549.104,0.128C550.064,0.128 551.088,-0.032 552.176,-0.416C553.264,-0.768 554.16,-1.248 554.896,-1.824C555.216,-2.08 555.408,-2.4 555.408,-2.784C555.408,-3.168 555.216,-3.552 554.832,-3.872C554.576,-4.064 554.256,-4.192 553.872,-4.192C553.456,-4.192 553.104,-4.064 552.816,-3.84C552.368,-3.488 551.792,-3.2 551.088,-2.976C550.384,-2.72 549.744,-2.624 549.104,-2.624C547.472,-2.624 546.096,-3.072 544.976,-4C543.856,-4.896 543.184,-6.112 542.96,-7.616L555.12,-7.616C555.536,-7.616 555.888,-7.744 556.176,-8ZM544.816,-13.6C545.776,-14.432 547.056,-14.88 548.624,-14.88C550.032,-14.88 551.152,-14.432 552.048,-13.6C552.912,-12.736 553.456,-11.584 553.648,-10.176L542.992,-10.176C543.248,-11.584 543.856,-12.736 544.816,-13.6Z" style="fill:rgb(74,222,128);fill-rule:nonzero;"/>
                </g>
                <g id="path6505" transform="matrix(0.75,0,0,0.75,127.403,423.914)">
                    <path d="M571.987,-17.184C571.347,-17.504 570.451,-17.696 569.331,-17.696C568.243,-17.696 567.251,-17.472 566.323,-17.056C565.363,-16.608 564.595,-16.032 563.955,-15.296L563.955,-15.904C563.955,-16.96 563.411,-17.504 562.355,-17.504C561.843,-17.504 561.427,-17.344 561.171,-17.088C560.883,-16.8 560.755,-16.416 560.755,-15.904L560.755,-1.6C560.755,-1.056 560.883,-0.64 561.171,-0.384C561.427,-0.128 561.843,-0 562.355,-0C562.867,-0 563.283,-0.128 563.539,-0.416C563.795,-0.672 563.955,-1.088 563.955,-1.6L563.955,-10.944C563.955,-12.128 564.403,-13.088 565.363,-13.792C566.291,-14.496 567.539,-14.848 569.075,-14.848C569.587,-14.848 570.291,-14.752 571.155,-14.624C571.347,-14.56 571.507,-14.56 571.635,-14.56C572.275,-14.56 572.723,-14.88 572.915,-15.584C572.915,-15.648 572.947,-15.744 572.947,-15.904C572.947,-16.416 572.627,-16.832 571.987,-17.184Z" style="fill:rgb(74,222,128);fill-rule:nonzero;"/>
                </g>
                <g id="path6507" transform="matrix(0.75,0,0,0.75,127.403,423.914)">
                    <path d="M586.174,-16.96C585.086,-17.408 583.838,-17.632 582.462,-17.632C581.31,-17.632 580.254,-17.44 579.262,-17.088C578.238,-16.704 577.438,-16.16 576.829,-15.456C576.189,-14.72 575.901,-13.824 575.901,-12.8C575.901,-10.208 577.949,-8.512 582.045,-7.744C583.613,-7.424 584.733,-7.072 585.406,-6.624C586.045,-6.176 586.397,-5.632 586.397,-4.992C586.397,-4.288 586.045,-3.744 585.373,-3.36C584.701,-2.944 583.773,-2.752 582.557,-2.752C581.629,-2.752 580.765,-2.912 579.965,-3.232C579.133,-3.552 578.525,-3.968 578.141,-4.416C577.757,-4.8 577.342,-4.992 576.925,-4.992C576.574,-4.992 576.189,-4.832 575.805,-4.544C575.358,-4.224 575.165,-3.808 575.165,-3.296C575.165,-2.912 575.294,-2.56 575.582,-2.304C576.286,-1.568 577.31,-0.992 578.59,-0.544C579.87,-0.096 581.214,0.128 582.686,0.128C584.126,0.128 585.374,-0.096 586.398,-0.544C587.422,-0.992 588.222,-1.632 588.766,-2.432C589.278,-3.232 589.566,-4.128 589.566,-5.12C589.566,-6.432 589.054,-7.52 588.094,-8.352C587.134,-9.184 585.47,-9.824 583.166,-10.304C582.014,-10.528 581.15,-10.752 580.574,-11.008C579.966,-11.264 579.55,-11.52 579.358,-11.808C579.134,-12.096 579.038,-12.448 579.038,-12.896C579.038,-13.472 579.326,-13.952 579.966,-14.272C580.606,-14.592 581.406,-14.784 582.398,-14.784C583.23,-14.784 583.966,-14.656 584.574,-14.464C585.15,-14.272 585.726,-13.92 586.27,-13.44C586.718,-13.024 587.198,-12.832 587.774,-12.832C588.126,-12.832 588.414,-12.896 588.67,-13.088C589.022,-13.376 589.214,-13.696 589.214,-14.08C589.214,-14.4 589.054,-14.752 588.798,-15.104C588.158,-15.872 587.262,-16.512 586.174,-16.96Z" style="fill:rgb(74,222,128);fill-rule:nonzero;"/>
                </g>
                <g id="path6509" transform="matrix(0.75,0,0,0.75,127.403,423.914)">
                    <path d="M596.157,-3.264C595.709,-3.712 595.197,-3.936 594.621,-3.936C594.013,-3.936 593.501,-3.712 593.053,-3.264C592.605,-2.816 592.413,-2.304 592.413,-1.696C592.413,-1.088 592.605,-0.576 593.053,-0.128C593.501,0.32 594.013,0.512 594.621,0.512C595.229,0.512 595.741,0.32 596.189,-0.128C596.605,-0.576 596.829,-1.088 596.829,-1.696C596.829,-2.304 596.605,-2.816 596.157,-3.264Z" style="fill:rgb(74,222,128);fill-rule:nonzero;"/>
                </g>
                <g id="path6511" transform="matrix(0.75,0,0,0.75,127.403,423.914)">
                    <path d="M624.133,-24.128C623.013,-24.704 621.733,-24.992 620.325,-24.992L612.677,-24.992C612.197,-24.992 611.781,-24.832 611.493,-24.512C611.173,-24.192 611.013,-23.808 611.013,-23.328L611.013,-1.664C611.013,-1.184 611.173,-0.8 611.493,-0.48C611.813,-0.16 612.197,0 612.677,0L620.997,0C622.565,0 623.973,-0.32 625.221,-0.96C626.469,-1.568 627.429,-2.464 628.133,-3.648C628.837,-4.768 629.189,-6.08 629.189,-7.552C629.189,-9.12 628.773,-10.432 627.941,-11.456C627.109,-12.48 625.957,-13.152 624.517,-13.504C625.477,-13.984 626.245,-14.656 626.821,-15.52C627.397,-16.32 627.685,-17.28 627.685,-18.336C627.685,-19.616 627.365,-20.736 626.725,-21.76C626.085,-22.784 625.221,-23.552 624.133,-24.128ZM623.333,-15.648C622.565,-15.008 621.573,-14.72 620.325,-14.72L615.301,-14.72C615.013,-14.72 614.789,-14.784 614.597,-14.976C614.405,-15.168 614.341,-15.392 614.341,-15.68L614.341,-20.928C614.341,-21.216 614.405,-21.44 614.597,-21.632C614.789,-21.824 615.013,-21.92 615.301,-21.92L620.325,-21.92C621.573,-21.92 622.565,-21.6 623.333,-20.992C624.101,-20.384 624.485,-19.488 624.485,-18.336C624.485,-17.152 624.101,-16.256 623.333,-15.648ZM624.613,-4.224C623.685,-3.456 622.469,-3.072 620.997,-3.072L615.301,-3.072C615.013,-3.072 614.789,-3.136 614.597,-3.328C614.405,-3.52 614.341,-3.744 614.341,-4.032L614.341,-10.656C614.341,-10.944 614.405,-11.168 614.597,-11.36C614.789,-11.552 615.013,-11.648 615.301,-11.648L620.997,-11.648C622.501,-11.648 623.717,-11.296 624.613,-10.592C625.509,-9.856 625.989,-8.864 625.989,-7.552C625.989,-6.112 625.509,-4.992 624.613,-4.224Z" style="fill:rgb(74,222,128);fill-rule:nonzero;"/>
                </g>
                <g id="path6513" transform="matrix(0.75,0,0,0.75,127.403,423.914)">
                    <path d="M648.186,-16.096C648.186,-16.672 647.834,-17.088 647.194,-17.344C646.938,-17.44 646.682,-17.504 646.426,-17.504C645.85,-17.504 645.434,-17.184 645.178,-16.576L640.026,-4.96L634.17,-16.608C633.849,-17.184 633.401,-17.504 632.825,-17.504C632.569,-17.504 632.377,-17.44 632.185,-17.376C631.897,-17.248 631.674,-17.056 631.513,-16.832C631.321,-16.576 631.257,-16.32 631.257,-16.064C631.257,-15.808 631.29,-15.584 631.417,-15.392L638.617,-1.728L635.417,5.472C635.289,5.728 635.225,5.984 635.225,6.24C635.225,6.816 635.545,7.232 636.185,7.488C636.473,7.616 636.729,7.68 636.954,7.68C637.53,7.68 637.945,7.36 638.202,6.688L647.994,-15.328C648.122,-15.616 648.186,-15.872 648.186,-16.096Z" style="fill:rgb(74,222,128);fill-rule:nonzero;"/>
                </g>
                <g id="path6515" transform="matrix(0.75,0,0,0.75,127.403,423.914)">
                    <path d="M673.115,-16.704C671.931,-17.344 670.619,-17.664 669.147,-17.664C668.059,-17.664 667.067,-17.472 666.139,-17.088C665.179,-16.704 664.379,-16.192 663.707,-15.52L663.707,-23.36C663.707,-23.84 663.547,-24.224 663.259,-24.544C662.939,-24.832 662.555,-24.992 662.075,-24.992C661.595,-24.992 661.211,-24.832 660.891,-24.544C660.571,-24.224 660.443,-23.84 660.443,-23.36L660.443,-1.6C660.443,-1.12 660.571,-0.736 660.891,-0.416C661.211,-0.096 661.595,0.032 662.075,0.032C662.555,0.032 662.939,-0.096 663.259,-0.416C663.547,-0.736 663.707,-1.12 663.707,-1.6L663.707,-10.624C663.707,-11.392 663.899,-12.064 664.314,-12.704C664.731,-13.312 665.306,-13.792 666.042,-14.176C666.778,-14.528 667.61,-14.72 668.507,-14.72C670.042,-14.72 671.258,-14.272 672.186,-13.376C673.114,-12.48 673.594,-11.2 673.594,-9.472L673.594,-1.6C673.594,-1.12 673.723,-0.736 674.042,-0.416C674.362,-0.096 674.746,0.032 675.226,0.032C675.674,0.032 676.058,-0.096 676.378,-0.416C676.699,-0.736 676.858,-1.12 676.858,-1.6L676.858,-9.472C676.858,-11.2 676.507,-12.672 675.867,-13.888C675.194,-15.104 674.266,-16.064 673.115,-16.704Z" style="fill:rgb(74,222,128);fill-rule:nonzero;"/>
                </g>
                <g id="path6517" transform="matrix(0.75,0,0,0.75,127.403,423.914)">
                    <path d="M699.054,-8.736C699.054,-10.368 698.637,-11.904 697.87,-13.248C697.102,-14.592 696.046,-15.68 694.702,-16.448C693.358,-17.216 691.886,-17.632 690.254,-17.632C688.59,-17.632 687.086,-17.216 685.742,-16.448C684.398,-15.68 683.342,-14.592 682.574,-13.248C681.806,-11.904 681.422,-10.4 681.422,-8.736C681.422,-7.072 681.774,-5.536 682.478,-4.192C683.182,-2.848 684.174,-1.792 685.422,-1.024C686.702,-0.224 688.078,0.16 689.614,0.16L697.518,0.16C697.934,0.16 698.286,-0 698.606,-0.288C698.894,-0.576 699.054,-0.928 699.054,-1.376L699.054,-8.736ZM685.294,-5.664C684.782,-6.56 684.558,-7.584 684.558,-8.736C684.558,-9.856 684.782,-10.88 685.294,-11.808C685.805,-12.704 686.478,-13.44 687.342,-13.952C688.206,-14.464 689.165,-14.752 690.254,-14.752C691.31,-14.752 692.27,-14.464 693.134,-13.952C693.998,-13.44 694.67,-12.704 695.182,-11.808C695.662,-10.88 695.918,-9.856 695.918,-8.736C695.918,-7.584 695.662,-6.56 695.182,-5.664C694.67,-4.768 693.998,-4.032 693.134,-3.52C692.27,-3.008 691.31,-2.752 690.254,-2.752C689.166,-2.752 688.206,-3.008 687.342,-3.52C686.478,-4.032 685.806,-4.768 685.294,-5.664Z" style="fill:rgb(74,222,128);fill-rule:nonzero;"/>
                </g>
                <g id="path6519" transform="matrix(0.75,0,0,0.75,127.403,423.914)">
                    <path d="M717.991,-14.752C716.327,-16.672 714.215,-17.632 711.718,-17.632C710.055,-17.632 708.55,-17.248 707.238,-16.48C705.894,-15.712 704.87,-14.656 704.134,-13.312C703.398,-11.968 703.046,-10.432 703.046,-8.736C703.046,-7.072 703.398,-5.536 704.166,-4.192C704.935,-2.848 705.99,-1.792 707.334,-1.024C708.679,-0.256 710.182,0.128 711.878,0.128C714.182,0.128 716.103,-0.576 717.638,-2.016C717.894,-2.272 718.022,-2.56 718.022,-2.88C718.022,-3.296 717.798,-3.68 717.415,-4.032C717.159,-4.224 716.871,-4.32 716.583,-4.32C716.199,-4.32 715.783,-4.16 715.399,-3.872C714.503,-3.104 713.319,-2.752 711.879,-2.752C710.759,-2.752 709.767,-3.008 708.903,-3.52C708.039,-4.032 707.367,-4.736 706.887,-5.632C706.407,-6.528 706.183,-7.584 706.183,-8.736C706.183,-10.528 706.695,-12 707.719,-13.088C708.743,-14.176 710.055,-14.752 711.719,-14.752C712.519,-14.752 713.223,-14.592 713.863,-14.336C714.503,-14.08 715.079,-13.664 715.623,-13.088C715.943,-12.704 716.359,-12.512 716.871,-12.512C717.127,-12.512 717.383,-12.576 717.607,-12.736C718.055,-13.056 718.311,-13.44 718.311,-13.92C718.311,-14.24 718.183,-14.496 717.991,-14.752Z" style="fill:rgb(74,222,128);fill-rule:nonzero;"/>
                </g>
                <g id="path6521" transform="matrix(0.75,0,0,0.75,127.403,423.914)">
                    <path d="M736.761,-1.344C736.761,-1.728 736.632,-2.048 736.409,-2.304L730.201,-9.92L736.089,-15.168C736.409,-15.424 736.601,-15.808 736.601,-16.256C736.601,-16.64 736.441,-16.96 736.185,-17.248C735.896,-17.568 735.545,-17.76 735.097,-17.76C734.713,-17.76 734.361,-17.6 734.105,-17.344L726.329,-10.4L726.329,-23.424C726.329,-23.872 726.169,-24.256 725.881,-24.544C725.593,-24.832 725.209,-24.992 724.761,-24.992C724.281,-24.992 723.897,-24.832 723.609,-24.544C723.321,-24.256 723.193,-23.872 723.193,-23.424L723.193,-1.568C723.193,-1.088 723.321,-0.704 723.609,-0.416C723.897,-0.128 724.281,0 724.761,0C725.209,0 725.593,-0.128 725.881,-0.416C726.169,-0.704 726.329,-1.088 726.329,-1.568L726.329,-6.464L727.929,-7.872L734.009,-0.352C734.297,0.032 734.681,0.224 735.161,0.224C735.513,0.224 735.865,0.096 736.185,-0.16C736.569,-0.48 736.761,-0.864 736.761,-1.344Z" style="fill:rgb(74,222,128);fill-rule:nonzero;"/>
                </g>
                <g id="path6523" transform="matrix(0.75,0,0,0.75,127.403,423.914)">
                    <path d="M755.051,-8C755.307,-8.256 755.467,-8.608 755.467,-9.024C755.467,-10.688 755.147,-12.192 754.507,-13.504C753.867,-14.784 752.939,-15.808 751.755,-16.544C750.539,-17.248 749.131,-17.632 747.499,-17.632C745.835,-17.632 744.331,-17.248 743.019,-16.48C741.707,-15.712 740.683,-14.656 739.947,-13.312C739.211,-11.968 738.859,-10.432 738.859,-8.736C738.859,-7.008 739.243,-5.504 740.011,-4.16C740.779,-2.816 741.867,-1.76 743.275,-0.992C744.651,-0.224 746.219,0.128 747.979,0.128C748.939,0.128 749.963,-0.032 751.051,-0.416C752.139,-0.768 753.035,-1.248 753.771,-1.824C754.091,-2.08 754.283,-2.4 754.283,-2.784C754.283,-3.168 754.091,-3.552 753.707,-3.872C753.451,-4.064 753.131,-4.192 752.747,-4.192C752.331,-4.192 751.979,-4.064 751.691,-3.84C751.243,-3.488 750.667,-3.2 749.963,-2.976C749.259,-2.72 748.619,-2.624 747.979,-2.624C746.347,-2.624 744.971,-3.072 743.851,-4C742.731,-4.896 742.059,-6.112 741.835,-7.616L753.995,-7.616C754.411,-7.616 754.763,-7.744 755.051,-8ZM743.691,-13.6C744.651,-14.432 745.931,-14.88 747.499,-14.88C748.907,-14.88 750.027,-14.432 750.923,-13.6C751.787,-12.736 752.331,-11.584 752.523,-10.176L741.867,-10.176C742.123,-11.584 742.731,-12.736 743.691,-13.6Z" style="fill:rgb(74,222,128);fill-rule:nonzero;"/>
                </g>
                <g id="path6525" transform="matrix(0.75,0,0,0.75,127.403,423.914)">
                    <path d="M770.862,-17.184C770.222,-17.504 769.326,-17.696 768.206,-17.696C767.118,-17.696 766.126,-17.472 765.198,-17.056C764.238,-16.608 763.47,-16.032 762.83,-15.296L762.83,-15.904C762.83,-16.96 762.286,-17.504 761.23,-17.504C760.718,-17.504 760.302,-17.344 760.046,-17.088C759.758,-16.8 759.63,-16.416 759.63,-15.904L759.63,-1.6C759.63,-1.056 759.758,-0.64 760.046,-0.384C760.302,-0.128 760.718,-0 761.23,-0C761.742,-0 762.158,-0.128 762.414,-0.416C762.67,-0.672 762.83,-1.088 762.83,-1.6L762.83,-10.944C762.83,-12.128 763.278,-13.088 764.238,-13.792C765.166,-14.496 766.414,-14.848 767.95,-14.848C768.462,-14.848 769.166,-14.752 770.03,-14.624C770.222,-14.56 770.382,-14.56 770.51,-14.56C771.15,-14.56 771.598,-14.88 771.79,-15.584C771.79,-15.648 771.822,-15.744 771.822,-15.904C771.822,-16.416 771.502,-16.832 770.862,-17.184Z" style="fill:rgb(74,222,128);fill-rule:nonzero;"/>
                </g>
                <g id="path6527" transform="matrix(0.75,0,0,0.75,127.403,423.914)">
                    <path d="M785.049,-16.96C783.961,-17.408 782.713,-17.632 781.337,-17.632C780.184,-17.632 779.129,-17.44 778.136,-17.088C777.112,-16.704 776.313,-16.16 775.704,-15.456C775.064,-14.72 774.776,-13.824 774.776,-12.8C774.776,-10.208 776.824,-8.512 780.92,-7.744C782.488,-7.424 783.608,-7.072 784.281,-6.624C784.92,-6.176 785.272,-5.632 785.272,-4.992C785.272,-4.288 784.92,-3.744 784.248,-3.36C783.576,-2.944 782.648,-2.752 781.432,-2.752C780.504,-2.752 779.64,-2.912 778.84,-3.232C778.008,-3.552 777.4,-3.968 777.016,-4.416C776.632,-4.8 776.217,-4.992 775.8,-4.992C775.449,-4.992 775.064,-4.832 774.68,-4.544C774.233,-4.224 774.04,-3.808 774.04,-3.296C774.04,-2.912 774.169,-2.56 774.457,-2.304C775.16,-1.568 776.184,-0.992 777.465,-0.544C778.745,-0.096 780.089,0.128 781.561,0.128C783.001,0.128 784.249,-0.096 785.273,-0.544C786.297,-0.992 787.097,-1.632 787.641,-2.432C788.153,-3.232 788.441,-4.128 788.441,-5.12C788.441,-6.432 787.929,-7.52 786.969,-8.352C786.009,-9.184 784.345,-9.824 782.041,-10.304C780.889,-10.528 780.025,-10.752 779.449,-11.008C778.841,-11.264 778.425,-11.52 778.233,-11.808C778.009,-12.096 777.913,-12.448 777.913,-12.896C777.913,-13.472 778.201,-13.952 778.841,-14.272C779.481,-14.592 780.281,-14.784 781.273,-14.784C782.105,-14.784 782.841,-14.656 783.449,-14.464C784.025,-14.272 784.601,-13.92 785.145,-13.44C785.593,-13.024 786.073,-12.832 786.649,-12.832C787.001,-12.832 787.289,-12.896 787.545,-13.088C787.897,-13.376 788.089,-13.696 788.089,-14.08C788.089,-14.4 787.929,-14.752 787.673,-15.104C787.033,-15.872 786.137,-16.512 785.049,-16.96Z" style="fill:rgb(74,222,128);fill-rule:nonzero;"/>
                </g>
                <g id="path6529" transform="matrix(0.75,0,0,0.75,127.403,423.914)">
                    <path d="M795.032,-3.264C794.584,-3.712 794.072,-3.936 793.496,-3.936C792.888,-3.936 792.376,-3.712 791.928,-3.264C791.48,-2.816 791.288,-2.304 791.288,-1.696C791.288,-1.088 791.48,-0.576 791.928,-0.128C792.376,0.32 792.888,0.512 793.496,0.512C794.104,0.512 794.616,0.32 795.064,-0.128C795.48,-0.576 795.704,-1.088 795.704,-1.696C795.704,-2.304 795.48,-2.816 795.032,-3.264Z" style="fill:rgb(74,222,128);fill-rule:nonzero;"/>
                </g>
            </g>
            <g id="title">
                <g id="path6532" transform="matrix(0.91,0,0,0.91,44.2408,384.78)">
                    <path d="M316.567,-50.4L307.855,-50.4L307.855,-29.592L282.727,-29.592L282.727,-50.4L274.015,-50.4L274.015,0L282.727,0L282.727,-20.808L307.855,-20.808L307.855,0L316.567,0L316.567,-50.4Z" style="fill:rgb(187,247,208);fill-rule:nonzero;"/>
                </g>
                <g id="path6534" transform="matrix(0.91,0,0,0.91,44.2408,384.78)">
                    <path d="M370.291,0L350.347,-50.4L340.555,-50.4L320.611,0L329.611,0L332.491,-7.2L358.483,-7.2L361.291,0L370.291,0ZM355.027,-15.912L335.947,-15.912L345.451,-39.96L355.027,-15.912Z" style="fill:rgb(187,247,208);fill-rule:nonzero;"/>
                </g>
                <g id="path6536" transform="matrix(0.91,0,0,0.91,44.2408,384.78)">
                    <path d="M413.3,-6.912L407.18,-13.104C403.94,-9.864 399.62,-8.064 395.084,-8.064C385.652,-8.064 377.948,-15.768 377.948,-25.2C377.948,-34.632 385.652,-42.336 395.084,-42.336C399.62,-42.336 403.94,-40.536 407.18,-37.296L413.3,-43.488C408.404,-48.312 401.924,-51.048 395.084,-51.048C380.828,-51.048 369.236,-39.456 369.236,-25.2C369.236,-10.944 380.828,0.648 395.084,0.648C401.924,0.648 408.404,-2.088 413.3,-6.912Z" style="fill:rgb(187,247,208);fill-rule:nonzero;"/>
                </g>
                <g id="path6538" transform="matrix(0.91,0,0,0.91,44.2408,384.78)">
                    <path d="M458.976,0L444.432,-25.2L458.976,-50.4L449.328,-50.4L427.008,-11.736L427.008,-50.4L418.296,-50.4L418.296,0L429.888,0L439.608,-16.776L449.328,0L458.976,0Z" style="fill:rgb(187,247,208);fill-rule:nonzero;"/>
                </g>
                <g id="path6540" transform="matrix(0.91,0,0,0.91,44.2408,384.78)">
                    <path d="M472.289,-41.688L506.417,-41.688L506.417,-50.4L463.577,-50.4L463.577,0L506.417,0L506.417,-8.712L472.289,-8.712L472.289,-20.808L495.545,-20.808L495.545,-29.592L472.289,-29.592L472.289,-41.688Z" style="fill:rgb(187,247,208);fill-rule:nonzero;"/>
                </g>
                <g id="path6542" transform="matrix(0.91,0,0,0.91,44.2408,384.78)">
                    <path d="M554.36,-31.32C554.36,-41.832 545.792,-50.4 535.208,-50.4L511.952,-50.4L511.952,0L520.664,0L520.664,-12.168L535.352,-12.168L542.84,0L552.848,0L544.064,-14.328C550.184,-17.568 554.36,-23.976 554.36,-31.32ZM520.664,-20.88L520.664,-41.688L535.208,-41.688C540.968,-41.688 545.648,-37.008 545.648,-31.32C545.648,-25.56 540.968,-20.88 535.208,-20.88L520.664,-20.88Z" style="fill:rgb(187,247,208);fill-rule:nonzero;"/>
                </g>
                <g id="path6544" transform="matrix(0.91,0,0,0.91,44.2408,384.78)">
                    <path d="M584.811,-29.592L572.787,-29.592C569.763,-29.592 567.315,-32.04 567.315,-34.992L567.315,-36.216C567.315,-39.24 569.763,-41.688 572.787,-41.688L584.811,-41.688C587.835,-41.688 590.283,-39.24 590.283,-36.216L598.995,-36.216C598.995,-44.064 592.659,-50.4 584.811,-50.4L572.787,-50.4C564.939,-50.4 558.603,-44.064 558.603,-36.216L558.603,-34.992C558.603,-27.216 564.939,-20.808 572.787,-20.808L584.811,-20.808C587.835,-20.808 590.283,-18.36 590.283,-15.408L590.283,-14.184C590.283,-11.16 587.835,-8.712 584.811,-8.712L572.787,-8.712C569.763,-8.712 567.315,-11.16 567.315,-14.184L558.603,-14.184C558.603,-6.336 564.939,-0 572.787,-0L584.811,-0C592.659,-0 598.995,-6.336 598.995,-14.184L598.995,-15.408C598.995,-23.184 592.659,-29.592 584.811,-29.592Z" style="fill:rgb(187,247,208);fill-rule:nonzero;"/>
                </g>
                <g id="path6546" transform="matrix(0.91,0,0,0.91,44.2408,384.78)">
                    <path d="M645.716,-8.712L618.716,-8.712L644.204,-50.4L602.372,-50.4L602.372,-41.688L628.58,-41.688L603.164,0L645.716,0L645.716,-8.712Z" style="fill:rgb(187,247,208);fill-rule:nonzero;"/>
                </g>
                <g id="path6548" transform="matrix(0.91,0,0,0.91,44.2408,384.78)">
                    <rect x="650.608" y="-50.4" width="8.712" height="50.4" style="fill:rgb(187,247,208);fill-rule:nonzero;"/>
                </g>
                <g id="path6550" transform="matrix(0.91,0,0,0.91,44.2408,384.78)">
                    <path d="M709.679,-50.4L700.967,-50.4L700.967,-12.744L677.495,-50.4L667.343,-50.4L667.343,0L676.055,0L676.055,-37.008L699.095,0L709.679,0L709.679,-50.4Z" style="fill:rgb(187,247,208);fill-rule:nonzero;"/>
                </g>
                <g id="path6552" transform="matrix(0.91,0,0,0.91,44.2408,384.78)">
                    <path d="M708.451,0L709.891,0L709.891,-50.4L708.451,-50.4L708.451,0ZM718.531,-8.712L752.587,-8.712L752.587,0L754.027,0L754.027,-50.4L752.587,-50.4L752.587,-41.688L718.531,-41.688L718.531,-29.592L741.787,-29.592L741.787,-20.808L718.531,-20.808L718.531,-8.712Z" style="fill:rgb(74,222,128);fill-rule:nonzero;"/>
                </g>
            </g>
        </g>
    </g>
</svg>
