<?xml version="1.0" encoding="UTF-8" standalone="no"?>
<!DOCTYPE svg PUBLIC "-//W3C//DTD SVG 1.1//EN" "http://www.w3.org/Graphics/SVG/1.1/DTD/svg11.dtd">
<svg width="100%" height="100%" viewBox="0 0 438 48" version="1.1" xmlns="http://www.w3.org/2000/svg" xmlns:xlink="http://www.w3.org/1999/xlink" xml:space="preserve" xmlns:serif="http://www.serif.com/" style="fill-rule:evenodd;clip-rule:evenodd;stroke-linejoin:round;stroke-miterlimit:2;">
    <g transform="matrix(1,0,0,1,-293,-338)">
        <g id="title">
            <g id="path6532" transform="matrix(0.91,0,0,0.91,44.2408,384.78)">
                <path d="M316.567,-50.4L307.855,-50.4L307.855,-29.592L282.727,-29.592L282.727,-50.4L274.015,-50.4L274.015,0L282.727,0L282.727,-20.808L307.855,-20.808L307.855,0L316.567,0L316.567,-50.4Z" style="fill:rgb(187,247,208);fill-rule:nonzero;"/>
            </g>
            <g id="path6534" transform="matrix(0.91,0,0,0.91,44.2408,384.78)">
                <path d="M370.291,0L350.347,-50.4L340.555,-50.4L320.611,0L329.611,0L332.491,-7.2L358.483,-7.2L361.291,0L370.291,0ZM355.027,-15.912L335.947,-15.912L345.451,-39.96L355.027,-15.912Z" style="fill:rgb(187,247,208);fill-rule:nonzero;"/>
            </g>
            <g id="path6536" transform="matrix(0.91,0,0,0.91,44.2408,384.78)">
                <path d="M413.3,-6.912L407.18,-13.104C403.94,-9.864 399.62,-8.064 395.084,-8.064C385.652,-8.064 377.948,-15.768 377.948,-25.2C377.948,-34.632 385.652,-42.336 395.084,-42.336C399.62,-42.336 403.94,-40.536 407.18,-37.296L413.3,-43.488C408.404,-48.312 401.924,-51.048 395.084,-51.048C380.828,-51.048 369.236,-39.456 369.236,-25.2C369.236,-10.944 380.828,0.648 395.084,0.648C401.924,0.648 408.404,-2.088 413.3,-6.912Z" style="fill:rgb(187,247,208);fill-rule:nonzero;"/>
            </g>
            <g id="path6538" transform="matrix(0.91,0,0,0.91,44.2408,384.78)">
                <path d="M458.976,0L444.432,-25.2L458.976,-50.4L449.328,-50.4L427.008,-11.736L427.008,-50.4L418.296,-50.4L418.296,0L429.888,0L439.608,-16.776L449.328,0L458.976,0Z" style="fill:rgb(187,247,208);fill-rule:nonzero;"/>
            </g>
            <g id="path6540" transform="matrix(0.91,0,0,0.91,44.2408,384.78)">
                <path d="M472.289,-41.688L506.417,-41.688L506.417,-50.4L463.577,-50.4L463.577,0L506.417,0L506.417,-8.712L472.289,-8.712L472.289,-20.808L495.545,-20.808L495.545,-29.592L472.289,-29.592L472.289,-41.688Z" style="fill:rgb(187,247,208);fill-rule:nonzero;"/>
            </g>
            <g id="path6542" transform="matrix(0.91,0,0,0.91,44.2408,384.78)">
                <path d="M554.36,-31.32C554.36,-41.832 545.792,-50.4 535.208,-50.4L511.952,-50.4L511.952,0L520.664,0L520.664,-12.168L535.352,-12.168L542.84,0L552.848,0L544.064,-14.328C550.184,-17.568 554.36,-23.976 554.36,-31.32ZM520.664,-20.88L520.664,-41.688L535.208,-41.688C540.968,-41.688 545.648,-37.008 545.648,-31.32C545.648,-25.56 540.968,-20.88 535.208,-20.88L520.664,-20.88Z" style="fill:rgb(187,247,208);fill-rule:nonzero;"/>
            </g>
            <g id="path6544" transform="matrix(0.91,0,0,0.91,44.2408,384.78)">
                <path d="M584.811,-29.592L572.787,-29.592C569.763,-29.592 567.315,-32.04 567.315,-34.992L567.315,-36.216C567.315,-39.24 569.763,-41.688 572.787,-41.688L584.811,-41.688C587.835,-41.688 590.283,-39.24 590.283,-36.216L598.995,-36.216C598.995,-44.064 592.659,-50.4 584.811,-50.4L572.787,-50.4C564.939,-50.4 558.603,-44.064 558.603,-36.216L558.603,-34.992C558.603,-27.216 564.939,-20.808 572.787,-20.808L584.811,-20.808C587.835,-20.808 590.283,-18.36 590.283,-15.408L590.283,-14.184C590.283,-11.16 587.835,-8.712 584.811,-8.712L572.787,-8.712C569.763,-8.712 567.315,-11.16 567.315,-14.184L558.603,-14.184C558.603,-6.336 564.939,-0 572.787,-0L584.811,-0C592.659,-0 598.995,-6.336 598.995,-14.184L598.995,-15.408C598.995,-23.184 592.659,-29.592 584.811,-29.592Z" style="fill:rgb(187,247,208);fill-rule:nonzero;"/>
            </g>
            <g id="path6546" transform="matrix(0.91,0,0,0.91,44.2408,384.78)">
                <path d="M645.716,-8.712L618.716,-8.712L644.204,-50.4L602.372,-50.4L602.372,-41.688L628.58,-41.688L603.164,0L645.716,0L645.716,-8.712Z" style="fill:rgb(187,247,208);fill-rule:nonzero;"/>
            </g>
            <g id="path6548" transform="matrix(0.91,0,0,0.91,44.2408,384.78)">
                <rect x="650.608" y="-50.4" width="8.712" height="50.4" style="fill:rgb(187,247,208);fill-rule:nonzero;"/>
            </g>
            <g id="path6550" transform="matrix(0.91,0,0,0.91,44.2408,384.78)">
                <path d="M709.679,-50.4L700.967,-50.4L700.967,-12.744L677.495,-50.4L667.343,-50.4L667.343,0L676.055,0L676.055,-37.008L699.095,0L709.679,0L709.679,-50.4Z" style="fill:rgb(187,247,208);fill-rule:nonzero;"/>
            </g>
            <g id="path6552" transform="matrix(0.91,0,0,0.91,44.2408,384.78)">
                <path d="M708.451,0L709.891,0L709.891,-50.4L708.451,-50.4L708.451,0ZM718.531,-8.712L752.587,-8.712L752.587,0L754.027,0L754.027,-50.4L752.587,-50.4L752.587,-41.688L718.531,-41.688L718.531,-29.592L741.787,-29.592L741.787,-20.808L718.531,-20.808L718.531,-8.712Z" style="fill:rgb(74,222,128);fill-rule:nonzero;"/>
            </g>
        </g>
    </g>
</svg>
